<svg width="200" height="150" viewBox="0 0 800 600" fill="none" xmlns="http://www.w3.org/2000/svg" data-reactroot="">
    <path fill-rule="evenodd" clip-rule="evenodd" d="M515.715 35.1865H283.41C266.718 35.1865 253.187 48.7182 253.187 65.4103V445.358C253.187 462.05 266.718 475.582 283.41 475.582H515.715C532.407 475.582 545.939 462.05 545.939 445.358V65.4103C545.939 48.7182 532.407 35.1865 515.715 35.1865ZM283.41 10C252.808 10 228 34.808 228 65.4103V445.358C228 475.96 252.808 500.768 283.41 500.768H515.715C546.317 500.768 571.125 475.96 571.125 445.358V65.4103C571.125 34.808 546.317 10 515.715 10H283.41Z" fill="#B5CDFB"></path>
    <path fill-rule="evenodd" clip-rule="evenodd" d="M436.56 170.244H289.395V145.058H436.56V170.244Z" fill="#C4B6FF"></path>
    <path fill-rule="evenodd" clip-rule="evenodd" d="M506.556 228.559H289.395V203.373H506.556V228.559Z" fill="#C4B6FF"></path>
    <path fill-rule="evenodd" clip-rule="evenodd" d="M506.556 286.873H289.395V261.687H506.556V286.873Z" fill="#C4B6FF"></path>
    <path d="M506.554 482.336C506.554 541.797 458.351 590 398.89 590C339.429 590 291.227 541.797 291.227 482.336C291.227 422.875 339.429 374.673 398.89 374.673C458.351 374.673 506.554 422.875 506.554 482.336Z" fill="#C4B6FF"></path>
    <path d="M401.236 472.813L544.309 295.526C547.558 291.5 554.039 293.203 554.889 298.306L411.881 527.744C408.152 533.727 399.591 534.128 395.318 528.522L333.053 446.816C332.006 445.441 333.467 443.572 335.054 444.256L401.236 472.813Z" fill="#7D55FF"></path>
</svg>
